
<svg
   height="24"
   viewBox="0 -960 960 960"
   width="24"
   >
 
  <path
     d="m 480,-800 c -22,0 -40.83333,-7.83333 -56.5,-23.5 C 407.83333,-839.16667 400,-858 400,-880 c 0,-22 7.83333,-40.83333 23.5,-56.5 15.66667,-15.66667 34.5,-23.5 56.5,-23.5 22,0 40.83333,7.83333 56.5,23.5 15.66667,15.66667 23.5,34.5 23.5,56.5 0,22 -7.83333,40.83333 -23.5,56.5 -15.66667,15.66667 -34.5,23.5 -56.5,23.5 z m -120,600 v -480 c -40,-3.33333 -80.66667,-8.33333 -122,-15 -41.33333,-6.66667 -80.66667,-15 -118,-25 l 20,-80 c 52,14 107.33333,24.16667 166,30.5 58.66667,6.33333 116.66667,9.5 174,9.5 57.33333,0 115.33333,-3.16667 174,-9.5 58.66667,-6.33333 114,-16.5 166,-30.5 l 20,80 c -37.33333,10 -76.66667,18.33333 -118,25 -41.33333,6.66667 -82,11.66667 -122,15 v 480 h -80 v -240 h -80 v 240 z"
     id="path1" />
  <path
     d="m 324.16,-117.12 c -11.33333,0 -20.83333,-3.83333 -28.5,-11.5 -7.66667,-7.66667 -11.5,-17.16667 -11.5,-28.5 0,-11.33333 3.83333,-20.83333 11.5,-28.5 7.66667,-7.66667 17.16667,-11.5 28.5,-11.5 11.33333,0 20.83333,3.83333 28.5,11.5 7.66667,7.66667 11.5,17.16667 11.5,28.5 0,11.33333 -3.83333,20.83333 -11.5,28.5 -7.66667,7.66667 -17.16667,11.5 -28.5,11.5 z m 160,0 c -11.33333,0 -20.83333,-3.83333 -28.5,-11.5 -7.66667,-7.66667 -11.5,-17.16667 -11.5,-28.5 0,-11.33333 3.83333,-20.83333 11.5,-28.5 7.66667,-7.66667 17.16667,-11.5 28.5,-11.5 11.33333,0 20.83333,3.83333 28.5,11.5 7.66667,7.66667 11.5,17.16667 11.5,28.5 0,11.33333 -3.83333,20.83333 -11.5,28.5 -7.66667,7.66667 -17.16667,11.5 -28.5,11.5 z m 160,0 c -11.33333,0 -20.83333,-3.83333 -28.5,-11.5 -7.66667,-7.66667 -11.5,-17.16667 -11.5,-28.5 0,-11.33333 3.83333,-20.83333 11.5,-28.5 7.66667,-7.66667 17.16667,-11.5 28.5,-11.5 11.33333,0 20.83333,3.83333 28.5,11.5 7.66667,7.66667 11.5,17.16667 11.5,28.5 0,11.33333 -3.83333,20.83333 -11.5,28.5 -7.66667,7.66667 -17.16667,11.5 -28.5,11.5 z"
     id="path1-0" />
</svg>
